<svg width="170" height="170" viewBox="0 0 170 170" fill="none" xmlns="http://www.w3.org/2000/svg">
<circle cx="85" cy="85" r="85" fill="#F8A0A0"/>
<mask id="mask0_4_57" style="mask-type:alpha" maskUnits="userSpaceOnUse" x="0" y="0" width="170" height="170">
<circle cx="85" cy="85" r="85" fill="#D9D9D9"/>
</mask>
<g mask="url(#mask0_4_57)">
<path d="M72.0271 89.8634L55.5271 55.8634L52 54.5L48 56.5C48 56.5 46.9539 68.3316 47.5 78.8634C47.7435 83.5596 47.5272 80.3634 48.0272 89.8634C48.1419 92.0435 48.2139 95.7911 47.5272 97.8634C46.4526 101.106 44.7732 102.428 43.0272 105.363C37.035 115.438 28.0272 131.363 28.0272 131.363C28.0272 131.363 22.916 140.181 21.0272 146.363C19.9751 149.807 19.2423 151.769 19.0272 155.363C18.8042 159.087 20.0272 164.863 20.0272 164.863L21.2544 171.863H39.5271L39.0271 139.863L45.0271 125.863L80.0271 113.363V95.8634L72.0271 89.8634Z" fill="black"/>
<path d="M113.027 53.8634L122.5 52.7411C122.5 52.7411 121.932 60.1905 121.527 64.8634C121.136 69.3755 120.275 71.8411 120.027 76.3634C119.845 79.6779 119.683 81.5618 120.027 84.8634C120.337 87.8342 121.527 92.3634 121.527 92.3634C121.527 92.3634 122.753 97.3482 124.027 100.363C126.493 106.2 129.575 108.55 133.027 113.863C135.801 118.133 137.834 120.542 140.527 124.863C142.103 127.393 142.027 127.363 144.527 130.863C145.963 132.873 147.027 135.863 147.027 135.863C147.027 135.863 147.527 138.411 147.527 140.363C147.527 142.316 147.527 143.863 146.027 149.863C144.527 155.863 144.296 155.582 144.027 159.363C143.777 162.875 143.881 164.903 144.527 168.363C144.936 170.552 146.027 173.863 146.027 173.863H134.027L135.027 143.863L125.527 129.863L105.027 117.863L95.0272 109.363V94.8634L107.027 74.8634L113.027 53.8634Z" fill="black"/>
<path d="M113.5 57.8634C113.128 62.5095 112.48 67.0865 111.428 71.3634C109.648 78.5931 106.712 84.9652 102 89.3634C100.391 90.865 98.937 92.2763 97.5 93.5434C94.1521 96.4953 90.8978 98.6637 86 99.3634C83.6728 98.7428 81.5278 97.9296 79.5 96.9388C74.9928 94.7366 71.0644 91.6568 67 87.8634C63.0327 84.1605 60.4644 79.6182 58.7032 74.2364C57.135 69.4443 56.2066 63.9866 55.5 57.8634C55.5 57.1928 55.5114 56.5261 55.5339 55.8634C56.2717 34.1486 68.9581 16.8634 84.5 16.8634C99.8027 16.8634 112.337 33.6204 113.424 54.8634C113.474 55.854 113.5 56.8545 113.5 57.8634Z" fill="#DBAE7F"/>
<path d="M55.5 57.8634C55.5 57.1928 55.5114 56.5261 55.5339 55.8634C55.5339 55.8634 54.0617 55.3017 53.5 55.8634C51.5 57.8634 51.6297 59.0857 51.5 59.8634C51.2924 61.1092 51.141 64.3505 51.5 66.8634C51.8149 69.0673 52.2859 70.2209 53 72.3634C53.5 73.8634 55 74.8634 55 74.8634C55 74.8634 56.5 75.8634 58 75.3634C58.4922 75.1993 58.7032 74.2364 58.7032 74.2364C57.135 69.4443 56.2066 63.9866 55.5 57.8634Z" fill="#DBAE7F"/>
<path d="M113.424 54.8634C113.474 55.854 113.5 56.8545 113.5 57.8634C113.128 62.5095 112.48 67.0865 111.428 71.3634C111.428 71.3634 112.532 72.2493 113.5 72.3634C114.656 72.4996 116.5 71.3634 116.5 71.3634C116.5 71.3634 119.212 69.0786 120 66.8634C120.853 64.4648 120.192 61.6405 119.5 59.3634L119.478 59.2906C118.622 56.4752 117.979 54.3591 115.5 53.8634C114.617 53.6869 113.424 54.8634 113.424 54.8634Z" fill="#DBAE7F"/>
<path d="M86 99.3634C83.6728 98.7428 81.5278 97.9296 79.5 96.9388C79.5 96.9388 80.8889 102.667 79.5 105.863C79.0463 106.908 78.6488 107.428 78 108.363C73.6666 114.613 69 115.863 61 118.363C53.7314 120.635 48.2887 119.884 43 125.363C41.1555 127.274 40.169 128.479 39 130.863C37.3312 134.268 37.1323 136.574 37 140.363C36.8834 143.704 38 148.863 38 148.863L39 159.363L40 171.863L135 173.863C135 173.863 137.053 165.706 137.5 160.363C137.874 155.888 138.069 153.358 138 148.863C137.949 145.539 137.5 139 137.5 139C137.5 139 137.043 136.814 136.5 135.5C135.779 133.756 135.088 132.729 134 131.363C132.515 129.499 129 127.863 129 127.863L114.5 120.363C114.5 120.363 104.863 115.92 100 111.363C99.194 110.608 99.0168 110.34 98.5 109.363C97.9443 108.314 97.6582 107.541 97.5 106.363C96.8334 101.401 97.5 93.5434 97.5 93.5434C94.1521 96.4953 90.8978 98.6637 86 99.3634Z" fill="#DBAE7F"/>
<path d="M102 79.5C102 79.5 101.114 76.2835 100 74.5C97.7857 70.9561 94.7484 70.6288 91.5 68C88.9152 65.9082 87.134 65.0501 85 62.5C83.6446 60.8802 83.1038 59.8007 82 58C80.2653 55.1699 79.1024 53.6311 78 50.5C77.0716 47.8629 76.5 43.5 76.5 43.5V27C76.5 27 77 27.5 76.5 28.5C76 29.5 76 30 75 32C73.8123 34.3755 73.0147 35.8184 71.5 38C69.2451 41.2477 65.5 46 65.5 46L61.5 50.5L55.7471 56.1366C55.7471 56.1366 54.7471 55.6366 54.2471 55.6366C53.7471 55.6366 48 56.5 48 56.5C48 56.5 47.931 46.3483 48.5 41.5C48.942 37.7345 50.5 32 50.5 32C50.5 32 52.5926 24.7386 55.5 21.1366C57.6698 18.4485 59.3992 17.0226 62.5 15.5C65.5257 14.0143 69 13.5 71 13.5C73 13.5 79 14 79 14C79 14 81.1273 11.395 83 10.5C85.995 9.06864 88.2155 8.89723 91.5 9.37769C94.7845 9.85816 98.134 10.9447 102 12.8777C106 14.8777 108.438 17.8161 110.5 19.8777C112 21.3777 116.5 29.8777 116.5 29.8777C116.5 29.8777 119.215 36.8518 120.5 41.5C121.715 45.8936 122.5 52.8777 122.5 52.8777L113.747 54.1366L113 64C113 64 111.943 60.88 111 59C109.859 56.7241 109.107 55.4745 107.5 53.5C105.493 51.0348 101.5 48 101.5 48C101.5 48 97.174 44.2659 94 42.5C91.9383 41.3529 88.5 40 88.5 40C88.5 40 86.6154 38.8594 85.5 38C82.7637 35.8914 79.5 31.5 79.5 31.5C79.5 31.5 79.2553 39.7771 80 45C80.1677 46.1758 80 45 80.5 48C80.8676 50.2056 81.0299 50.7392 82 52.5C83.1807 54.6429 84.5365 56.0394 86 58C87.4867 59.9916 90.5 62.5 90.5 62.5C90.5 62.5 93.2427 65.2426 95 67C96.3669 68.3668 98.5 70.5 98.5 70.5C98.5 70.5 100.284 72.1537 101 73.5C102.116 75.5971 102 79.5 102 79.5Z" fill="black"/>
<path d="M72.5 129C69.1794 124.924 67.5 116.5 67.5 116.5L50.5 120.5C50.5 120.5 53.505 123.34 55 125.5C57.1888 128.663 58.4173 130.809 59.5 134.5C60.6116 138.289 60.828 140.565 60.5 144.5C60.2126 147.948 59.0656 149.708 58 153C56.5922 157.349 54 164 54 164L58 170.5L99 175.5L123 161.5C123 161.5 120 156.444 118.5 153C117.095 149.773 116.125 147.964 115.5 144.5C114.806 140.657 114.913 138.361 115.5 134.5C116.214 129.799 119.5 123 119.5 123L107 116C107 116 105 124.5 102.5 129C100.42 132.744 98.4957 134.959 94.5 136.5C90.674 137.975 87.4737 138.512 83.5 137.5C78.3567 136.19 75.9356 133.218 72.6025 129.126L72.5 129Z" fill="#785757"/>
</g>
</svg>
