<svg width="170" height="170" viewBox="0 0 170 170" fill="none" xmlns="http://www.w3.org/2000/svg">
<mask id="mask0_4_56" style="mask-type:alpha" maskUnits="userSpaceOnUse" x="0" y="0" width="170" height="170">
<circle cx="85" cy="85" r="85" transform="matrix(-1 0 0 1 170 0)" fill="#78AEB1"/>
</mask>
<g mask="url(#mask0_4_56)">
<circle cx="85" cy="85" r="85" transform="matrix(-1 0 0 1 170 0)" fill="#78AEB1"/>
<path fill-rule="evenodd" clip-rule="evenodd" d="M116 62C116 63.6957 115.909 65.3648 115.733 67C115.733 67 116.833 65.1126 118 64.5C118.115 64.4397 118.221 64.3776 118.322 64.3182C118.704 64.0946 119.021 63.9089 119.5 64C120.292 64.1505 120.188 64.9338 120.074 65.7913C120.02 66.1974 119.964 66.62 120 67C120 67 119.988 71.3031 119.5 74C119.104 76.1908 118.819 77.4299 118 79.5C117.357 81.1239 116 83.5 116 83.5L115.677 83.4945C114.699 91.731 111.557 99.0813 107 104.606V117L110 122L103.5 144.5H67L62.2086 117V99C59.5655 94.1995 57.8036 88.5772 57.2161 82.5008L57.1704 82.5C57.1704 82.5 56.0908 82.7766 55.5 82.5C54.9177 82.2274 54.8526 81.7036 54.7805 81.1237C54.7347 80.7551 54.686 80.3638 54.5 80C54.1314 79.2791 53.7008 78.7943 53.2748 78.3147C52.817 77.7993 52.3646 77.2899 52 76.5C51.2071 74.7822 51.1486 73.4977 51.0734 71.8488C51.0542 71.4275 51.0339 70.9823 51 70.5C50.9821 70.2455 50.9637 70.0066 50.9462 69.7789C50.843 68.4383 50.7697 67.4844 51 66C51.0633 65.5919 51.0612 65.1659 51.0592 64.7549C51.0543 63.7513 51.0498 62.8382 52 62.5C52.4939 62.3242 52.8424 62.3853 53.3242 62.4696C53.3808 62.4796 53.4393 62.4898 53.5 62.5C55.4532 62.8284 57.1704 66 57.1704 66C57.0578 64.686 57 63.3515 57 62C57 41.5655 70.2076 25 86.5 25C102.792 25 116 41.5655 116 62Z" fill="#EACBAF"/>
<path d="M100.5 33C95.596 31.0646 92.1227 34.2461 87 33C83.9348 32.2544 82.6511 30.1474 79.5 30C74.9633 29.7878 72.5034 32.1099 69 35C66.4349 37.116 64.6427 38.3773 63.5 41.5C62.3592 44.6173 64.6408 46.8827 63.5 50C62.3573 53.1227 59.0314 53.3388 58 56.5C57.1521 59.0988 58 63.5 58 63.5V72.5C58 72.5 54.8553 66.2504 53.5 62C52.0458 57.4393 51.4018 54.77 51 50C50.7213 46.6923 50.1421 44.7067 51 41.5C52.0218 37.6806 53.347 35.3856 56.5 33C59.4545 30.7646 61.8089 30.319 65.5 30H69L67.5 28.5C67.5 28.5 66.8769 25.0555 67.5 23C68.5822 19.43 74.5 16.5 74.5 16.5C74.5 16.5 81.98 13.4526 87 13.5C91.8303 13.5456 99 16.5 99 16.5C99 16.5 107.468 21.6407 112 26C116 29.848 118.899 31.8626 121 37C122.934 41.7302 122.741 44.8952 122.5 50C122.245 55.3947 120 64.5 120 64.5C120 64.5 119 63 117.5 65C116 67 115 74 115 74V67C115 67 115.807 61.7198 115 58.5C114.063 54.7645 110.937 53.7355 110 50C109.193 46.7802 111.08 44.6389 110 41.5C108.381 36.7925 105.131 34.8276 100.5 33Z" fill="black"/>
<path d="M76.5 133.5C78.6573 134.852 80.1483 135.253 82 137C84.3636 139.23 86.5 144 86.5 144C86.5 144 88.8114 140.844 90.5 139C94.5363 134.592 98.9862 134.335 102.5 129.5C104.913 126.179 106 120 106 120L107 109.5H107.5L110 115.5L155.5 139C155.5 139 160.208 140.105 162.5 142C163.888 143.147 165.5 145.5 165.5 145.5L177.5 171H-6.5C-6.5 171 -4.74915 165.185 -3.5 161.5C-1.21793 154.769 -1.57778 149.937 3 144.5C6.14403 140.766 8.90719 139.661 13 137C20.9817 131.811 35 126.5 35 126.5L57.5 115L62 109.5C62 109.5 61.9576 113.009 62 115C62.0617 117.902 62.248 118.881 63.5 121.5C64.7856 124.189 65.4716 125.816 67.5 128C70.3033 131.018 73.0096 131.313 76.5 133.5Z" fill="#12373F"/>
</g>
</svg>
