<svg width="170" height="170" viewBox="0 0 170 170" fill="none" xmlns="http://www.w3.org/2000/svg">
<circle cx="85" cy="85" r="85" transform="matrix(-1 0 0 1 170 0)" fill="#6E8F7B"/>
<mask id="mask0_4_37" style="mask-type:alpha" maskUnits="userSpaceOnUse" x="0" y="0" width="170" height="170">
<circle cx="85" cy="85" r="85" transform="matrix(-1 0 0 1 170 0)" fill="#F8A0A0"/>
</mask>
<g mask="url(#mask0_4_37)">
<ellipse cx="33.5" cy="63" rx="33.5" ry="63" transform="matrix(-0.995035 -0.0995281 -0.0995281 0.995035 130.104 19.647)" fill="#CEA465"/>
<path d="M60 55.5C60 59.6838 60.6303 63.7157 61.5 67.5C62.8788 73.5 64.2819 75.1807 66 78.5C68.8121 82.7182 69.4276 84.4698 74.0237 88.2202C74.3307 88.4708 74.6556 88.7303 75 89C79.135 92.2382 83.4118 95 88.5 95C93.5882 95 97.865 92.2382 102 89C102.21 88.8355 102.416 88.6689 102.618 88.5C105.367 86.2043 107.428 83.4832 109.5 80C111.542 76.5674 114.382 72.7608 115.5 68.5C115.676 67.8303 115.833 67.1648 115.975 66.5C116.721 62.9836 117 59.4876 117 55.5C117 54.4907 116.973 53.4903 116.919 52.5C115.813 32.0862 103.512 16 88.5 16C72.7599 16 60 33.6848 60 55.5Z" fill="#FFDFC1"/>
<path d="M88.5 95C93.5882 95 97.865 92.2382 102 89C102.21 88.8355 102.416 88.6689 102.618 88.5C102.618 88.5 99.1529 99.8373 102.618 105.5C103.542 107.01 105.5 109 105.5 109L115.5 110L136.5 113.5L123.5 141.5L99 163L82 169.5L69.5 155.5L49.5 123.5L48.5 110.5L59 110L68.5 109C68.5 109 71.6813 107.294 73 105.5C75.2248 102.474 74.5 96 74.5 96L74.0237 88.2202C74.3307 88.4708 74.6556 88.7303 75 89C79.135 92.2382 83.4118 95 88.5 95Z" fill="#FFDFC1"/>
<path d="M117 55.5C117 54.4907 116.973 53.4903 116.919 52.5C116.919 52.5 118.098 51.4859 119 51.5C119.873 51.5137 120.5 51.7034 121 52.5C121.5 53.2966 121.666 54.6293 121.5 56C121.259 57.9958 119.866 58.6856 119 60.5C118.094 62.398 118.373 63.9071 117 65.5C116.635 65.9237 115.975 66.5 115.975 66.5C116.721 62.9836 117 59.4876 117 55.5Z" fill="#FFDFC1"/>
<path d="M96.5 23C96.5 21.3898 97.5 19 97.5 19L93.5 22.5C93.5 22.5 91.7683 23.6727 90.5 24C88.9875 24.3903 86.5 24 86.5 24C86.5 24 84.0954 22.7824 82.5 23C81.4581 23.1421 80 23.5 80 23.5C80 23.5 77.6653 24.5162 76.5 25.5C75.1244 26.6613 75.2367 29.6918 74 31C72.6586 32.419 71.1484 32.4208 70 34C68.5982 35.9277 69.577 36.8737 68.5 39C67.384 41.2034 65.901 41.5629 65.5 44C65.0878 46.5047 65.5994 48.5334 65 51C64.5459 52.8687 63.6938 53.7064 63 55.5C62.3317 57.2277 61.8536 58.1816 61.5 60C60.9782 62.6834 62.7608 64.2768 63 67C63.6106 73.951 67 84 67 84L59.5 110L48.5 110.5C48.5 110.5 43.5695 110.523 41 109C40.1601 108.502 39.6904 108.19 39 107.5C38.3096 106.81 37.8789 106.4 37.5 105.5C36.8938 104.06 37.5 103.062 37.5 101.5C37.5 100.133 37.2804 99.3491 37.5 98C37.7681 96.3534 38.7545 95.6502 39 94C39.1724 92.8412 39 92.1716 39 91V87.5C39 87.5 38.674 85.3274 39 84C39.3755 82.4712 41 80.5 41 80.5C41 80.5 44.0505 78.7062 45 77C46.1113 75.0029 46 71 46 71L48 66V59C48 59 49.2837 55.5292 49.5 53C49.7024 50.6332 48.9162 48.8026 49.5 46.5C50.5963 42.1756 54 37 54 37C54 37 55.0686 30.3261 57 27C58.6869 24.0948 64 20.5 64 20.5C64 20.5 67.0808 14.3119 70.5 11.5C73.01 9.43577 74.5814 8.4294 77.5 7C79.3887 6.075 80.4244 5.33887 82.5 5C84.0417 4.7483 84.9751 4.66113 86.5 5C88.2049 5.37887 90.5 7 90.5 7C90.5 7 91.0341 6.29651 91.5 6C92.6531 5.26618 93.6364 5.9055 95 6C97.1779 6.15094 98.4264 6.31722 100.5 7C104.512 8.32115 106.323 10.2158 109.5 13C113.148 16.1968 113.761 18.4971 116.5 22.5C119.263 26.5384 121.803 28.9104 123.5 33.5C125.028 37.632 124.314 41.1484 125 45.5C125.672 49.7609 126.789 51.1917 127 55.5C127.249 60.5707 125.364 63.9362 125 69C124.618 74.3159 125.717 76.7189 125 82C124.364 86.6798 121.975 89.2773 122 94C122.024 98.529 122.891 101.492 125 105.5C126.8 108.921 132 112.5 132 112.5L106 109L105 90L123.5 55.5L121 48.5C121 48.5 119.079 49.9223 118 51C116.121 52.8768 114 56.5 114 56.5V47.5C114 45.7426 114.462 44.6954 114 43C113.444 40.9623 112.501 39.9863 111 38.5C109.807 37.318 107.5 36 107.5 36C107.5 36 104.237 31.5731 102 29.5C100.38 27.9985 98.504 28.9678 97.5 27C96.7682 25.5657 96.5 24.6102 96.5 23Z" fill="#CEA465"/>
<path d="M43 108.5C48.9077 108.346 57.5 110 57.5 110C57.5 110 58.1533 115.237 59 118.5C61.5015 128.139 65.726 132.553 71 141C76.7707 150.243 87.5 163.5 87.5 163.5C87.5 163.5 99.1553 150.474 105 141C109.814 133.197 112.404 128.631 115.5 120C116.877 116.162 118.5 110 118.5 110C118.5 110 124.329 110.704 128 111.5C132.059 112.38 134.248 112.931 138.18 113.92L138.5 114C141.026 114.635 142.201 115.275 144.5 116.5C146.575 117.606 147.873 118.303 149.5 120C151.717 122.312 152.986 123.678 154.5 126.5C156.784 130.756 156.581 133.758 157.5 138.5C158.771 145.063 159.083 148.828 159.5 155.5C159.975 163.1 159.5 175 159.5 175H135L138.5 150.5L134 175H30L28.5 152L29 175H3V163.5C3 163.5 3.8287 153.081 5 146.5C6.05399 140.578 6.55666 137.193 8.5 131.5C10.0821 126.865 10.538 123.9 13.5 120C16.0109 116.694 17.8836 115.038 21.5 113C24.5666 111.272 26.602 110.919 30 110C34.7487 108.715 38.0257 108.63 42.9273 108.502L43 108.5Z" fill="#651B34"/>
</g>
</svg>
