<svg width="170" height="170" viewBox="0 0 170 170" fill="none" xmlns="http://www.w3.org/2000/svg">
<circle cx="85" cy="85" r="85" fill="#FED28F"/>
<mask id="mask0_4_36" style="mask-type:alpha" maskUnits="userSpaceOnUse" x="0" y="0" width="170" height="170">
<circle cx="85" cy="85" r="85" fill="#6E8F7B"/>
</mask>
<g mask="url(#mask0_4_36)">
<ellipse cx="84.5" cy="78.5" rx="42.5" ry="38.5" fill="#472E1A"/>
<path d="M108 61.5C108 73.0788 103.715 83.2434 97.2632 89C93.7136 92.1671 89.5083 94 85 94C76.7077 94 69.4404 87.7992 65.3936 78.5C64.5103 76.4702 63.7804 74.2928 63.2268 72C62.4315 68.7062 62 65.1743 62 61.5C62 59.9731 62.0745 58.4708 62.2187 57C63.7693 41.1805 73.378 29 85 29C97.7025 29 108 43.5507 108 61.5Z" fill="#6F391D"/>
<path d="M62 61.5C62 59.9731 62.0745 58.4708 62.2187 57C62.2187 57 61.3115 54.635 60 54C58.7697 53.4044 57.7912 53.5518 56.5 54C53.9373 54.8895 52.7107 57.3821 52 60C51.2838 62.6382 52.1009 64.4184 53 67C53.6058 68.7396 54.3298 69.5773 55.5 71C56.377 72.0664 56.7736 72.8657 58 73.5C59.3983 74.2232 60.7158 74.9105 62 74C62.7474 73.47 63.2268 72 63.2268 72C62.4315 68.7062 62 65.1743 62 61.5Z" fill="#6F391D"/>
<path d="M85 94C76.7077 94 69.4404 87.7992 65.3936 78.5C65.3936 78.5 67.6719 86.6406 68 92C68.155 94.5337 68 98.5 68 98.5L65.3936 110L106.5 111C106.5 111 101.679 108.961 99 107C97.5473 105.937 95.5 104 95.5 104C95.5 104 95 100.351 95 98C95 95.6487 95.5 92 95.5 92L97.2632 89C93.7136 92.1671 89.5083 94 85 94Z" fill="#6F391D"/>
<path d="M93.5 35.5C90.5623 33.8704 86.5 30.5 86.5 30.5C86.5 30.5 84.9626 32.568 83.5 33C81.3081 33.6474 78 31 78 31C78 31 76.9326 33.8181 76 35.5C74.3141 38.5404 73.1378 40.2354 70.5 42.5C68.5683 44.1584 66.2356 43.774 65 46C63.9533 47.8857 64.9556 49.3919 64.5 51.5C63.9254 54.1583 62 58 62 58C62 58 62.0413 53.3904 60 52C57.8958 50.5667 53.5 52.5 53.5 52.5C53.5 52.5 44.4293 62.5691 47 69C49.5614 75.4078 61.5 76 63 76.5C64.5 77 67.5 96 67.5 96C67.5 96 67.6689 105.475 64 109.5C62.1029 111.581 60.7392 112.846 58 113.5C54.2684 114.39 50.6696 114.164 48.5 111C46.6226 108.262 50.9683 104.719 48.5 102.5C46.462 100.668 43.8448 103.419 41.5 102C37.4593 99.5551 44.0147 92.4872 40 90C39.1061 89.4462 38.3926 89.5558 37.5 89C33.9218 86.7721 37.1426 82.1299 35 78.5C33.5245 76.0002 30.8052 75.7888 30 73C28.6899 68.4626 35.8281 67.2196 36 62.5C36.0795 60.3183 34.5724 59.1408 35 57C35.4668 54.6627 37.9808 54.3262 38.5 52C38.9275 50.0848 37.6279 48.9267 38 47C38.9038 42.3195 46.8398 44.6236 48 40C48.5722 37.7194 46.6734 36.2012 47.5 34C48.7008 30.8023 52.8746 32.1739 55 29.5C56.4681 27.653 55.6827 25.5047 57.5 24C59.2148 22.5801 61.0756 23.6194 63 22.5C64.9095 21.3892 65.0361 19.5117 67 18.5C69.9509 16.9798 73.2579 20.9478 75.5 18.5C76.5044 17.4034 75.8265 15.9134 77 15C78.2422 14.033 79.6436 15.299 81 14.5C82.7321 13.4796 81.7698 11.0237 83.5 9.99998C86.2149 8.39356 91 13 91 13C91 13 93.3051 9.84309 95.5 8.99998C98.4391 7.871 100.515 8.99707 103.5 9.99998C106.992 11.1735 108.198 13.3663 111.5 15C115.044 16.7532 118.572 15.3797 121 18.5C123.188 21.312 121.155 24.2003 122.5 27.5C124.587 32.6208 130.573 32.6576 132 38C132.806 41.0183 131.21 42.9774 132 46C132.932 49.5644 136.251 50.3926 137 54C137.763 57.6776 134.819 59.8063 135.5 63.5C136.007 66.2494 138.355 67.208 138.5 70C138.664 73.1503 135.343 74.3493 135.5 77.5C135.683 81.1796 141 81.8499 140.5 85.5C140.086 88.5219 137.615 89.3019 135.5 91.5C132.813 94.2931 129.812 94.5739 128 98C126.514 100.81 127.96 103.176 126.5 106C124.186 110.476 121.004 112.907 116 113.5C112.19 113.951 106.5 111 106.5 111L99 95.5L106.5 83C106.5 83 107.643 75.0898 107.5 70C107.395 66.271 106.678 64.2262 106.5 60.5C106.351 57.3794 107.437 55.4803 106.5 52.5C105.574 49.5548 103.445 48.7285 102 46C100.439 43.0512 101.445 40.2704 99 38C97.2711 36.3946 95.5632 36.6445 93.5 35.5Z" fill="#472E1A"/>
<path d="M82.5 110.5C75.9631 110.098 66 107.5 66 107.5C66 107.5 60.6122 111.969 56.5 113.5C51.7107 115.283 48.3159 113.29 43.5 115C38.7017 116.704 35.7723 118.099 32.5 122C28.4125 126.873 27.5 137.5 27.5 137.5L32.5 179L150.5 177.5V140.5C150.5 140.5 151.634 124.149 145 118C138.848 112.299 125.5 113.5 124 113.5C122.5 113.5 115.605 113.873 110.5 112.5C107.033 111.567 102 109 102 109C102 109 90.1233 110.969 82.5 110.5Z" fill="#A2B3BF"/>
</g>
</svg>
