<svg width="170" height="170" viewBox="0 0 170 170" fill="none" xmlns="http://www.w3.org/2000/svg">
<circle cx="85" cy="85" r="85" fill="#78AEB1"/>
<mask id="mask0_4_9" style="mask-type:alpha" maskUnits="userSpaceOnUse" x="0" y="0" width="170" height="170">
<circle cx="85" cy="85" r="85" fill="#FED18F"/>
</mask>
<g mask="url(#mask0_4_9)">
<ellipse cx="79.5" cy="79" rx="33.5" ry="63" transform="rotate(-5.712 79.5 79)" fill="#56402E"/>
<path d="M110 55.5C110 59.6838 109.37 63.7157 108.5 67.5C107.121 73.5 105.718 75.1807 104 78.5C101.188 82.7182 100.572 84.4698 95.9763 88.2202C95.6693 88.4708 95.3444 88.7303 95 89C90.865 92.2382 86.5882 95 81.5 95C76.4118 95 72.135 92.2382 68 89C67.79 88.8355 67.584 88.6689 67.3818 88.5C64.633 86.2043 62.5722 83.4832 60.5 80C58.4579 76.5674 55.6179 72.7608 54.5 68.5C54.3243 67.8303 54.1665 67.1648 54.0255 66.5C53.2793 62.9836 53 59.4876 53 55.5C53 54.4907 53.0273 53.4903 53.081 52.5C54.1871 32.0862 66.4881 16 81.5 16C97.2401 16 110 33.6848 110 55.5Z" fill="#DCB9A5"/>
<path d="M81.5 95C76.4118 95 72.135 92.2382 68 89C67.79 88.8355 67.584 88.6689 67.3818 88.5C67.3818 88.5 70.8471 99.8373 67.3818 105.5C66.4576 107.01 64.5 109 64.5 109L54.5 110L33.5 113.5L46.5 141.5L71 163L88 169.5L100.5 155.5L120.5 123.5L121.5 110.5L111 110L101.5 109C101.5 109 98.3187 107.294 97 105.5C94.7752 102.474 95.5 96 95.5 96L95.9763 88.2202C95.6693 88.4708 95.3444 88.7303 95 89C90.865 92.2382 86.5882 95 81.5 95Z" fill="#DCB9A5"/>
<path d="M53 55.5C53 54.4907 53.0273 53.4903 53.081 52.5C53.081 52.5 51.9015 51.4859 51 51.5C50.1269 51.5137 49.5 51.7034 49 52.5C48.5 53.2966 48.3344 54.6293 48.5 56C48.7411 57.9958 50.1342 58.6856 51 60.5C51.9057 62.398 51.6269 63.9071 53 65.5C53.3652 65.9237 54.0255 66.5 54.0255 66.5C53.2793 62.9836 53 59.4876 53 55.5Z" fill="#DCB9A5"/>
<path d="M73.5 23C73.5 21.3898 72.5 19 72.5 19L76.5 22.5C76.5 22.5 78.2317 23.6727 79.5 24C81.0125 24.3903 83.5 24 83.5 24C83.5 24 85.9046 22.7824 87.5 23C88.5419 23.1421 90 23.5 90 23.5C90 23.5 92.3347 24.5162 93.5 25.5C94.8756 26.6613 94.7633 29.6918 96 31C97.3414 32.419 98.8516 32.4208 100 34C101.402 35.9277 100.423 36.8737 101.5 39C102.616 41.2034 104.099 41.5629 104.5 44C104.912 46.5047 104.401 48.5334 105 51C105.454 52.8687 106.306 53.7064 107 55.5C107.668 57.2277 108.146 58.1816 108.5 60C109.022 62.6834 107.239 64.2768 107 67C106.389 73.951 103 84 103 84L110.5 110L121.5 110.5C121.5 110.5 126.43 110.523 129 109C129.84 108.502 130.31 108.19 131 107.5C131.69 106.81 132.121 106.4 132.5 105.5C133.106 104.06 132.5 103.062 132.5 101.5C132.5 100.133 132.72 99.3491 132.5 98C132.232 96.3534 131.245 95.6502 131 94C130.828 92.8412 131 92.1716 131 91V87.5C131 87.5 131.326 85.3274 131 84C130.625 82.4712 129 80.5 129 80.5C129 80.5 125.949 78.7062 125 77C123.889 75.0029 124 71 124 71L122 66V59C122 59 120.716 55.5292 120.5 53C120.298 50.6332 121.084 48.8026 120.5 46.5C119.404 42.1756 116 37 116 37C116 37 114.931 30.3261 113 27C111.313 24.0948 106 20.5 106 20.5C106 20.5 102.919 14.3119 99.5 11.5C96.99 9.43577 95.4186 8.4294 92.5 7C90.6113 6.075 89.5756 5.33887 87.5 5C85.9583 4.7483 85.0249 4.66113 83.5 5C81.7951 5.37887 79.5 7 79.5 7C79.5 7 78.9659 6.29651 78.5 6C77.3469 5.26618 76.3636 5.9055 75 6C72.8221 6.15094 71.5736 6.31722 69.5 7C65.4878 8.32115 63.6768 10.2158 60.5 13C56.8524 16.1968 56.2389 18.4971 53.5 22.5C50.7368 26.5384 48.1968 28.9104 46.5 33.5C44.9724 37.632 45.686 41.1484 45 45.5C44.3283 49.7609 43.2114 51.1917 43 55.5C42.7512 60.5707 44.6361 63.9362 45 69C45.3821 74.3159 44.2825 76.7189 45 82C45.6358 86.6798 48.0253 89.2773 48 94C47.9758 98.529 47.1091 101.492 45 105.5C43.1997 108.921 38 112.5 38 112.5L64 109L65 90L46.5 55.5L49 48.5C49 48.5 50.921 49.9223 52 51C53.8791 52.8768 56 56.5 56 56.5V47.5C56 45.7426 55.5376 44.6954 56 43C56.5557 40.9623 57.4994 39.9863 59 38.5C60.1934 37.318 62.5 36 62.5 36C62.5 36 65.7627 31.5731 68 29.5C69.6204 27.9985 71.496 28.9678 72.5 27C73.2318 25.5657 73.5 24.6102 73.5 23Z" fill="#56402E"/>
<path d="M127 108.5C121.092 108.346 112.5 110 112.5 110C112.5 110 111.847 115.237 111 118.5C108.499 128.139 104.274 132.553 99 141C93.2293 150.243 82.5 163.5 82.5 163.5C82.5 163.5 70.8447 150.474 65 141C60.1858 133.197 57.5956 128.631 54.5 120C53.1235 116.162 51.5 110 51.5 110C51.5 110 45.6706 110.704 42 111.5C37.9412 112.38 35.752 112.931 31.8203 113.92L31.5 114C28.9735 114.635 27.7988 115.275 25.5 116.5C23.4252 117.606 22.1273 118.303 20.5 120C18.2835 122.312 17.0143 123.678 15.5 126.5C13.2159 130.756 13.4187 133.758 12.5 138.5C11.2287 145.063 10.9166 148.828 10.5 155.5C10.0254 163.1 10.5 175 10.5 175H35L31.5 150.5L36 175H140L141.5 152L141 175H167V163.5C167 163.5 166.171 153.081 165 146.5C163.946 140.578 163.443 137.193 161.5 131.5C159.918 126.865 159.462 123.9 156.5 120C153.989 116.694 152.116 115.038 148.5 113C145.433 111.272 143.398 110.919 140 110C135.251 108.715 131.974 108.63 127.073 108.502L127 108.5Z" fill="#191E2E"/>
</g>
</svg>
