<svg width="170" height="170" viewBox="0 0 170 170" fill="none" xmlns="http://www.w3.org/2000/svg">
<circle cx="85" cy="85" r="85" fill="#6E8F7B"/>
<mask id="mask0_4_19" style="mask-type:alpha" maskUnits="userSpaceOnUse" x="0" y="0" width="170" height="170">
<circle cx="85" cy="85" r="85" fill="#FED18F"/>
</mask>
<g mask="url(#mask0_4_19)">
<path d="M115.5 69C115.5 74.0732 114.959 78.9503 113.962 83.5C113.776 84.3449 113.575 85.1785 113.359 86C109.037 102.425 98.6397 114 86.5 114C77.1322 114 68.8018 107.108 63.5 96.4126C61.7926 92.9684 60.3993 89.1298 59.3866 85C58.1676 80.0286 57.5 74.6353 57.5 69C57.5 66.6189 56.2704 63.7811 56.5 61.5C57.1009 55.53 56.5433 50.4489 58.5 45.5C60.5128 40.4093 60.8892 35.4876 64 32C68.7703 26.6518 80.1652 24 86.5 24C93.4062 24 101.519 25.746 106.5 32C112.523 39.5624 114.784 52.7921 115.414 65.5C115.471 66.655 115.5 67.8222 115.5 69Z" fill="#FFDFC1"/>
<path d="M57.5 69C57.5 69 55.4449 67.1485 54 67.5C53.0514 67.7308 52.4758 68.1475 52 69C51.429 70.023 51.6248 70.8901 52 72C52.4004 73.1844 53.5406 73.3372 54 74.5C54.574 75.9528 53.7305 76.9613 54 78.5C54.2879 80.1433 54.6429 81.0687 55.5 82.5C56.1424 83.5727 56.315 84.6014 57.5 85C58.1983 85.2349 59.3866 85 59.3866 85C58.1676 80.0286 57.5 74.6353 57.5 69Z" fill="#FFDFC1"/>
<path d="M115.414 65.5C115.471 66.655 115.5 67.8222 115.5 69C115.5 74.0732 114.959 78.9503 113.962 83.5L115.414 83C115.414 83 116.552 81.4658 117 80.5C117.551 79.3116 117.78 78.7912 118 77.5C118.232 76.139 118 74 118 74C118 74 117.679 71.8287 118 70.5C118.307 69.2267 119 67.5 119 67.5C119 67.5 119.533 65.8178 119 65C118.615 64.4103 118.2 64.0725 117.5 64C116.502 63.8966 115.414 65.5 115.414 65.5Z" fill="#FFDFC1"/>
<path d="M113.359 86C109.037 102.425 98.6397 114 86.5 114C77.1322 114 68.8018 107.108 63.5 96.4126V114L62.5 116L60 117.5L57.5 124.5L62.5 133L74.5 142.5L99.5 146L118 141.5L125 133L115.414 116H112.5L113.359 86Z" fill="#FFDFC1"/>
<path d="M78 31.5H85C85 31.5 89.5657 31.0826 92.5 31C94.647 30.9396 95.8561 30.8697 98 31C99.7649 31.1073 100.902 30.7431 102.5 31.5C103.63 32.0352 104.476 32.3648 105 33.5C105.491 34.5637 104.596 35.4003 105 36.5C105.337 37.4164 105.869 37.7547 106.5 38.5C107.392 39.554 108.621 39.6724 109 41C109.215 41.751 108.892 42.2264 109 43C109.206 44.4728 109.721 45.2334 110.5 46.5C111.155 47.5649 112.017 47.8467 112.5 49C113.179 50.6211 112.429 51.7441 112.5 53.5C112.635 56.8396 112.225 58.9103 113.5 62C114.1 63.4553 115.5 65.5 115.5 65.5L117 64C117 64 117.211 58.5084 117 55C116.799 51.6637 116.485 49.8069 116 46.5C115.51 43.165 115.298 41.2749 114.5 38C113.476 33.8007 113.239 31.197 111 27.5C108.924 24.0732 107.215 22.3904 104 20C101.336 18.0195 99.6346 17.0923 96.5 16C92.5886 14.637 90.141 14.4037 86 14.5C82.4378 14.5828 80.4166 14.9886 77 16C72.6451 17.2892 70.3236 18.5491 66.5 21C62.8797 23.3206 60.5786 24.5587 58 28C55.8001 30.9359 54.9623 32.9598 54 36.5C52.7697 41.0261 53 43.5 53.5 48.5C53.9279 52.7789 53.4601 55.2338 54 59.5C54.3991 62.6535 55.5 68 55.5 68L58 69.5C58 69.5 57.5929 65.6547 57.5 63.5C57.4159 61.5492 57.5 58.5 57.5 58.5C57.5 58.5 56.8257 54.2589 58 52C58.3248 51.3753 58.6426 51.1065 59 50.5C59.4433 49.7477 59.6691 49.3081 60 48.5C61.1199 45.7656 60.1038 43.8157 61 41C61.7945 38.5037 62.2378 36.9384 64 35C65.7126 33.1162 67.0847 32.3051 69.5 31.5C72.6491 30.4503 74.6805 31.5 78 31.5Z" fill="#CEA465"/>
<path fill-rule="evenodd" clip-rule="evenodd" d="M105 86C105 86 103.787 83.5799 102.5 82.5C101.284 81.4796 100.202 81.2066 98.8795 80.8727C98.4494 80.7641 97.9939 80.6492 97.5 80.5C95.7767 79.9795 94.7771 79.7876 93 79.5C90.871 79.1555 89.6552 79.0821 87.5 79C87.0986 78.9847 86.7414 78.9622 86.4058 78.941C85.4363 78.8797 84.6479 78.8299 83.5 79C81.6676 79.2715 79.5 80.0833 78.5 80.5C76.8879 81.1717 75 82 75 82C75 82 72.8217 83.7152 72 85C71.3346 86.0404 71 88 71 88C71 88 68.8207 87.5258 67.5 87C67.4343 86.9738 67.3693 86.948 67.3051 86.9225C65.3016 86.1259 64.0073 85.6113 62.5 84C61.2181 82.6297 60.7894 81.528 60.1423 79.865C60.0961 79.7463 60.0488 79.6247 60 79.5C59.482 78.1762 59 76 59 76C59 76 58.4048 81.536 59 85C59.3411 86.9851 59.8115 88.2556 60.4009 89.8474C60.5886 90.3545 60.7884 90.8942 61 91.5C61.231 92.1613 61.4306 92.7634 61.6185 93.3301C62.2767 95.3151 62.7905 96.8647 64 99C65.2219 101.157 66.1704 102.298 67.6706 104.103C67.7775 104.232 67.8872 104.364 68 104.5C68.45 105.042 68.859 105.553 69.2469 106.037C70.9869 108.207 72.3036 109.85 75 111.5C77.1652 112.825 78.5588 113.304 81 114C84.5877 115.022 86.7803 115.283 90.5 115C93.2877 114.788 94.9186 114.573 97.5 113.5C100.854 112.105 102.462 110.598 105 108C107.65 105.288 108.797 103.387 110.5 100C112.081 96.855 112.708 94.9299 113.5 91.5C114.11 88.8595 114.24 87.2312 114.443 84.7076C114.461 84.4795 114.48 84.2441 114.5 84C114.881 79.3292 114.5 72 114.5 72L112.5 78C112.5 78 111.622 81.2214 110.5 83C110.385 83.1817 110.279 83.355 110.177 83.5212C109.553 84.5348 109.095 85.2799 108 86C107.122 86.5779 105.5 87 105.5 87L105 86ZM98.9133 86.0826C98.4058 85.251 97.9839 84.5598 97 84C95.1331 82.9378 91.5 84 91.5 84H87.5C87.5 84 83.7961 83.533 81.5 84C81.4219 84.0159 81.3449 84.0315 81.2689 84.0469C79.3381 84.4381 78.0498 84.6991 76.5 86C75.2135 87.0799 74.4206 87.8738 74 89.5C73.7067 90.6343 73.7494 91.3555 74 92.5C74.394 94.2995 75.0201 95.4031 76.5 96.5C77.2015 97.02 77.6654 97.2432 78.5 97.5C78.7418 97.5744 78.9958 97.663 79.254 97.7532C80.5904 98.2197 82.0403 98.7258 82.5 97.5C82.5 97.5 82.3773 95.5728 82.5 95C82.6787 94.1661 83.034 94.0514 83.5899 93.8721C83.8489 93.7886 84.1515 93.691 84.5 93.5C85.3161 93.0528 86.0251 93.3159 86.7952 93.6017C87.3178 93.7956 87.8685 94 88.5 94C88.9889 94 89.4097 93.8217 89.8103 93.652C90.3696 93.415 90.8894 93.1947 91.5 93.5C91.6945 93.5973 91.9453 93.6914 92.2131 93.792C92.9655 94.0745 93.8518 94.4073 94 95C94.3866 96.5465 94.3935 96.546 94.9015 96.5066C95.0505 96.4951 95.2426 96.4802 95.5 96.5C96.5127 96.5779 97.1178 96.0908 97.8355 95.5132C98.0434 95.3459 98.2606 95.171 98.5 95C98.6926 94.8624 98.8783 94.7366 99.0564 94.6159C99.9173 94.0327 100.598 93.5712 101 92.5C101.411 91.403 101.317 90.6278 101 89.5C100.772 88.6888 100.415 88.2214 99.9822 87.654C99.8301 87.4548 99.6686 87.2432 99.5 87C99.276 86.677 99.0895 86.3714 98.9133 86.0826Z" fill="#CEA465"/>
<path d="M60 121C60.3969 118.853 62.5 116 62.5 116C62.5 116 54.7972 119.489 50 122C43.1762 125.572 39.4603 127.806 33 132C25.7272 136.722 22.0259 139.918 15 145C9.3351 149.097 4.97474 150.128 0.5 155.5C-2.13635 158.665 -3.18689 160.801 -5 164.5C-6.65996 167.886 -8.5 173.5 -8.5 173.5L188.5 176C188.5 176 188.86 170.192 188.5 166.5C187.953 160.891 187.304 157.643 185 152.5C183.713 149.627 182.775 148.1 181 145.5C178.037 141.161 175.98 138.929 172 135.5C163.796 128.431 156.98 127.706 147 123.5C133.855 117.96 112.5 112.5 112.5 112.5V116C112.5 116 114.148 116.235 115 117.5C116.762 120.116 117.57 121.875 118 125C118.569 129.135 118.099 131.892 116 135.5C112.834 140.943 108.101 141.942 102 143.5C96.3242 144.949 92.7695 144.514 87 143.5C81.7086 142.57 78.6883 141.623 74 139C69.6357 136.558 64 131 64 131C64 131 59.2354 125.136 60 121Z" fill="#565A65"/>
</g>
</svg>
