<svg width="170" height="170" viewBox="0 0 170 170" fill="none" xmlns="http://www.w3.org/2000/svg">
<circle cx="85" cy="85" r="85" fill="#FED18F"/>
<mask id="mask0_1_39" style="mask-type:alpha" maskUnits="userSpaceOnUse" x="0" y="0" width="170" height="170">
<circle cx="85" cy="85" r="85" fill="#D9D9D9"/>
</mask>
<g mask="url(#mask0_1_39)">
<path d="M130 84C130 90.6048 129.919 96.9831 129.157 103C128.556 107.747 127.531 112.269 125.787 116.5C124.86 118.749 123.839 120.915 122.733 122.989C121.807 124.726 120.82 126.398 119.778 128C117.056 132.181 113.952 135.882 110.542 139C102.94 145.95 93.8139 150 84 150C73.7244 150 64.203 145.56 56.3949 138C53.4007 135.101 50.6585 131.743 48.2223 128C47.9886 127.641 47.7577 127.278 47.5296 126.912C45.2574 123.265 43.2696 119.272 41.6135 115C40.7989 112.898 40.2196 110.729 39.8107 108.5C38.4213 100.925 39 92.6571 39 84C39 81.2922 39.102 78.6224 39.3018 76C41.7915 43.322 59.4597 18 84 18C107.194 18 125.015 40.6205 129.11 70.6925C129.695 74.9909 130 79.4415 130 84Z" fill="#C18D77"/>
<path d="M122.733 122.989C121.807 124.726 120.82 126.398 119.778 128C117.056 132.181 113.952 135.882 110.542 139C102.94 145.95 93.8139 150 84 150C73.7244 150 64.203 145.56 56.3949 138C53.4007 135.101 50.6585 131.743 48.2223 128C47.9886 127.641 47.7577 127.278 47.5296 126.912C47.6593 127.759 47.8872 129.722 47.4597 131C47.101 132.072 46.8103 132.712 46 133.5C44.7025 134.763 43.727 134.5 41.6135 135C39.5 135.5 33.8246 136.464 29 138C21.0083 140.545 9.5 147 9.5 147V210.5H160V143.5C160 143.5 151.249 137.506 145 135C139.373 132.744 132 131.5 130 131C128 130.5 124.5 130 123.5 129.5C122.5 129 122.5 126.5 122.5 126.5L122.733 122.989Z" fill="#C18D77"/>
<path d="M39 84C39 81.2922 39.102 78.6224 39.3018 76C39.3018 76 38.6101 75.1969 38 75C37.4425 74.8201 37.0524 74.805 36.5 75C35.5793 75.3249 34.9638 76.1409 34.5 77C33.6448 78.5841 33.5 79.6998 33.5 81.5C33.5 83 33.7079 83.6647 34 85C34.2247 86.0272 34.4914 86.5797 35 87.5C35.3405 88.1162 35.6706 88.3778 36 89C36.9317 90.7599 36.8547 92.014 37 94C37.0855 95.1684 37 97 37 97C37 97 37.3207 99.1713 37 100.5C36.6927 101.773 35.5 103.5 35.5 103.5C35.5 103.5 34.5312 105.701 35 107C35.2391 107.662 36 108.5 36 108.5C36 108.5 37.1355 109.377 38 109.5C38.3866 109.555 38.6381 109.647 39 109.5C39.4659 109.311 39.8107 108.5 39.8107 108.5C38.4213 100.925 39 92.6571 39 84Z" fill="#C18D77"/>
<path d="M129.11 70.6925C129.695 74.9909 130 79.4415 130 84C130 90.6048 129.919 96.9831 129.157 103L130.5 104C130.948 104.333 132.111 104.404 133 104C133.754 103.657 134.192 103.269 134.5 102.5C134.79 101.775 134.5 100.5 134.5 100.5L133.5 98.5C133.5 98.5 132.661 97.3583 132.5 96.5C132.392 95.9242 132.5 95 132.5 95L133 92C133 92 133.282 90.1676 133.5 89C133.978 86.4391 134.556 85.067 135 82.5C135.235 81.1395 135.419 80.3783 135.5 79C135.638 76.6528 135 73 135 73C135 73 135 71 134.5 70C134 69 133.465 68.6493 132.5 68.5C131.704 68.3769 131.185 68.5764 130.5 69C129.773 69.45 129.11 70.6925 129.11 70.6925Z" fill="#C18D77"/>
<path fill-rule="evenodd" clip-rule="evenodd" d="M106 111C104.229 109.235 101 107 101 107C101 107 96.1376 103.476 92.5 103C90.9511 102.797 89.9397 102.394 88.5 103C87.6002 103.379 87.2338 103.856 86.5 104.5C85.8773 105.046 85 106 85 106H84C82.8719 105.846 82.4763 105.086 81.5 104.5C80.5237 103.914 80.1352 103.087 79 103C77.694 102.9 74.1529 103.878 73 104.5C70.1396 106.043 69.6201 106.077 67 108C64.7626 109.642 64.6819 110.292 63 112.5C62.046 113.752 61.3816 115.473 61 117C60.5244 118.904 61.541 120.092 62 122C62.2888 123.201 63.0725 123.767 63 125C62.9231 126.308 62.2728 126.942 61.5 128C60.4378 129.453 59.3096 129.765 58 131C57.1965 131.758 56 133 56 133C56 133 57.6752 135.566 59 137C62.5672 140.862 65.6865 141.885 70.5 144C74.7979 145.888 77.3623 146.773 82 147.5C85.0925 147.985 86.8859 148.318 90 148C93.0156 147.692 94.7591 147.295 97.5 146C101.14 144.281 102.821 143.005 105.5 140C107.842 137.372 109.847 135.608 111.5 132.5C112.896 129.874 115 126 115 126L111 123L109 120L109.5 117L109 114.5C109 114.5 107.275 112.271 106 111ZM94 111.5C97.0194 111.768 97.9016 112.17 101.5 113.5C102.486 113.865 104.5 116 104.5 116C104.5 116 105.5 118.524 105.5 119.5C105.5 122.234 105.844 122.4 105 125C103.849 128.548 98.5 133 98.5 133C98.5 133 91.5747 136.854 86.5 137C81.3139 137.15 74 132.5 74 132.5C74 132.5 70.7528 129.634 69 127.5C67.2125 125.324 65 121.5 65 121.5C65 121.5 64.3521 119.678 64.5 118.5C64.7928 116.167 66.6183 115.41 68.5 114C71.3171 111.889 77 111 77 111C77 111 79 110.5 81 111.5C82.4081 112.204 82.9485 113.233 84.5 113.5C85.2697 113.632 86.2264 113.608 87 113.5C88.4728 113.294 88.5365 111.763 90 111.5C91.153 111.292 92.444 111.362 94 111.5Z" fill="#1E1E1E"/>
<path d="M86.5 121C86.5 121 83.4545 120.324 81.5 120.5C79.8963 120.644 78.8584 120.636 77.5 121.5C76.5681 122.093 75.5 123.5 75.5 123.5C75.5 123.5 76.9406 124.836 78 125.5C79.9366 126.714 81.2669 127.014 83.5 127.5C85.2277 127.876 88 128 88 128C88 128 91.1717 127.039 93 126C94.6975 125.035 97 123 97 123C97 123 96.2682 121.603 95.5 121C94.3815 120.123 93.4146 120.14 92 120C89.8275 119.785 86.5 121 86.5 121Z" fill="#1E1E1E"/>
<path d="M129.5 91.5C129.5 91.5 127.412 84.5509 126.5 80C125.724 76.128 125.482 73.9193 125 70C124.784 68.2451 125.068 67.1745 124.5 65.5C123.994 64.0091 123.36 63.3186 122.5 62C120.684 59.2148 118.308 58.5573 117 55.5C116.441 54.193 116.289 53.3918 116 52C115.522 49.6979 115.482 48.3512 115.5 46C115.516 43.8433 116.35 42.6281 116 40.5C115.729 38.8538 115.36 37.9293 114.5 36.5C113.361 34.6073 111 32 111 32C111 32 107.862 29.2599 105 27.5C105 27.5 101.5 25.5 101 25.5C100.195 25.4936 98.7021 25.6061 98 26C97.2775 26.4053 94.5 28.5 94.5 28.5C94.5 28.5 92.1212 29.6064 90.5 30L86.5 30.5C86.5 30.5 83.7672 30.9401 82 31C79.4556 31.0863 77 30.5 75.5 30C73.5682 29.517 72.4644 29.3263 70.5 29C69.1379 28.7737 68.3805 28.5242 67 28.5C65.426 28.4724 64.4681 28.4317 63 29C61.6869 29.5083 60.6716 30.219 59.5 31C57.7426 32.1716 55.5 34 55.5 34C55.5 34 53.398 35.6076 52.5 37C51.5957 38.402 51.5493 39.4247 51 41C50.1255 43.5078 49.3144 44.8628 49 47.5C48.792 49.245 48.9375 50.2437 49 52C49.0836 54.3498 48.83 55.7462 49.5 58C49.7996 59.0079 50.5 60.5 50.5 60.5C50.5 60.5 49.0365 62.3814 48 63.5C47.2492 64.3102 46.712 64.6555 46 65.5C44.8126 66.9083 44.2855 67.8337 43.5 69.5C42.7101 71.1756 42.4518 72.2035 42 74C40.7608 78.9271 41.5 87 41.5 87C41.5 87 40.0697 80.9076 39.5 77C39.1016 74.2675 39 72 39 70C39 59.8389 37.8846 53.9385 40 44C40.7594 40.4321 41 38.3251 42.5 35C44.845 29.8016 47.4067 27.4708 51.5 23.5C55.5085 19.6115 58.2116 17.8739 63 15C67.6428 12.2135 70.1394 9.76439 75.5 8.99999C78.013 8.64165 79.4655 8.85919 82 8.99999C85.1437 9.17464 86.9419 9.25075 90 9.99999C94.3331 11.0616 100.5 14.5 100.5 14.5C100.5 14.5 108.971 18.6857 113 23C116.179 26.404 117.153 28.9766 119.5 33C121.612 36.6215 122.913 38.6194 124.5 42.5C127.081 48.8128 128.5 59.5 128.5 59.5L129.5 91.5Z" fill="#1E1E1E"/>
<path d="M124 129.5C124 129.5 124.758 132.555 124.5 134.5C124.223 136.585 123.503 137.652 122.5 139.5C120.651 142.906 118.967 144.506 116 147C112.254 150.148 109.429 150.92 105 153C97.5094 156.517 85 160 85 160C85 160 69.9528 158.67 61.5 154.5C58.4368 152.989 56.7349 152.046 54 150C51.234 147.93 49.7108 146.654 47.5 144C45.4202 141.503 43.9114 140.119 43 137C42.7208 136.044 42.5 134.5 42.5 134.5C42.5 134.5 32.8191 135.844 27 138C23.1505 139.426 17.5 142.5 17.5 142.5L9 147.5L9.5 210.5H160.5L160 143.5C160 143.5 156.469 140.576 154 139C151.57 137.449 150.143 136.651 147.5 135.5C144.669 134.267 140 133 140 133C140 133 134.833 131.721 131.5 131C128.581 130.368 124 129.5 124 129.5Z" fill="#651B34"/>
</g>
</svg>
