<svg width="510" height="479" viewBox="0 0 510 479" fill="none" xmlns="http://www.w3.org/2000/svg">
<g opacity="0.3">
<path d="M493.237 346.175H422.679V464.445H493.237V346.175Z" fill="#B2B2B2"/>
<path d="M422.954 346.175H352.396V464.445H422.954V346.175Z" fill="#D1D1D1"/>
<path d="M385.988 202.751L382.98 266.325L368.836 312.945H394.299L407.525 272.777L411.658 227.128L385.988 202.751Z" fill="#F7EBE7"/>
<path d="M385.276 424.957L390.396 450.159L373.198 452.318L368.308 427.504L385.276 424.957Z" fill="#FCC9A7"/>
<path d="M391.429 447.879C390.993 446.521 389.615 446.035 388.674 446.909C386.837 448.631 383.531 450.741 378.64 450.232C373.566 449.698 371.66 446.545 370.925 444.265C370.535 443.076 369.456 442.47 368.491 442.979L337.701 459.327C335.841 460.322 334.372 462.165 333.637 464.47C332.948 466.628 334.326 468.957 336.255 468.908L389.455 467.356C391.544 467.308 393.151 465.125 392.968 462.602L392.095 450.232C392.072 450.038 392.049 449.819 391.98 449.625L391.429 447.879Z" fill="#1F252A"/>
<path d="M384.977 303.097H345.048C345.048 303.097 320.733 301.666 319.287 322.744C317.84 343.822 354.945 404.122 360.754 436.333L394.139 433.422L370.099 345.835L429.888 346.199C434.32 346.223 438.728 345.544 442.907 344.016C454.548 339.747 472.32 333.635 462.63 299.774L384.977 303.097Z" fill="#092330"/>
<path d="M415.791 425.054L423.919 455.18L406.721 457.339L398.823 427.601L415.791 425.054Z" fill="#FCC9A7"/>
<path d="M424.952 452.9C424.516 451.541 423.138 451.056 422.197 451.93C420.36 453.652 417.053 455.762 412.163 455.253C407.088 454.719 405.183 451.566 404.448 449.286C404.058 448.097 402.978 447.491 402.014 448L371.224 464.348C369.364 465.343 367.894 467.186 367.16 469.491C366.471 471.649 367.849 473.978 369.777 473.929L423.896 472.377C425.985 472.329 427.592 470.146 427.409 467.623L425.595 455.253C425.572 455.059 425.549 454.84 425.48 454.646L424.952 452.9Z" fill="#1F252A"/>
<path d="M432.69 177.768C433.585 178.69 473.652 189.484 473.652 189.484L465.087 213.521L421.278 210.028L432.69 177.768Z" fill="#F7EBE7"/>
<path d="M416.158 183.565C416.158 183.565 390.052 193.631 385.988 202.751C387.388 215.631 391.682 228.026 398.754 238.625C407.433 251.626 418.156 273.966 416.181 303.097H491.653C491.653 303.097 487.589 221.137 465.248 189.678L416.158 183.565Z" fill="#F7EBE7"/>
<path d="M424.722 196.566C432.139 194.965 436.915 187.325 435.399 179.49L430.968 156.569L404.127 162.366L408.558 185.287C410.073 193.122 417.306 198.167 424.722 196.566Z" fill="#FCC9A7"/>
<path d="M432.804 164.573C432.804 164.573 429.98 183.153 416.296 184.269C404.31 185.239 405.458 166.926 405.458 166.926L432.804 164.573Z" fill="#F4BE9A"/>
<path d="M417.375 174.081L419.74 173.499C431.61 170.588 439.004 158.072 436.249 145.557L433.126 131.27C430.37 118.73 418.523 110.92 406.675 113.83L404.31 114.412C392.439 117.323 385.046 129.839 387.801 142.355L390.924 156.641C393.679 169.182 405.527 176.992 417.375 174.081Z" fill="#FCC9A7"/>
<path d="M428.809 151.499C428.258 152.494 427.73 153.998 427.546 156.278C427.34 159.164 425.962 161.905 423.666 163.506C417.076 168.114 412.048 156.447 402.313 158.509C402.313 158.509 398.501 159.116 397.743 163.603C396.986 168.066 391.682 160.256 390.511 154.919C389.34 149.583 388.743 181.334 412.714 178.641C412.714 178.641 424.814 178.229 432.965 165.204C433.861 163.773 434.389 162.099 434.435 160.377C434.503 157.83 434.159 153.973 431.863 151.208C431.059 150.19 429.452 150.335 428.809 151.499Z" fill="#1C2226"/>
<path d="M428.832 144.295C428.832 144.295 418.477 140.681 420.222 124.697C420.222 124.697 394.506 150.408 375.448 131.537C375.448 131.537 383.967 129.136 387.48 122.975C393.886 111.744 412.3 96.2691 427.041 114.17C427.041 114.17 444.974 111.235 439.83 140.414L428.832 144.295Z" fill="#1C2226"/>
<path d="M428.832 144.295C429.819 148.758 434.044 151.548 438.269 150.529C442.517 149.486 445.134 145.023 444.17 140.56C443.182 136.097 438.958 133.307 434.733 134.326C430.485 135.369 427.845 139.832 428.832 144.295Z" fill="#FCC9A7"/>
<path d="M415.745 195.669L426.835 195.887L419.074 212.866L410.693 196.59L415.745 195.669Z" fill="#0C2C40"/>
<path d="M436.34 178.52L422.059 196.13L431.358 207.408L448.464 182.571C448.464 182.571 444.078 175.124 436.34 178.52Z" fill="#FFF7F3"/>
<path d="M415.745 195.669L407.525 205.468L401.739 190.187C401.739 190.187 403.254 183.323 407.984 184.632L415.745 195.669Z" fill="#FFF7F3"/>
<path d="M418.775 207.384C418.775 207.384 408.053 236.927 410.716 278.841L421.278 289.029L433.608 276.488L420.314 205.468L418.775 207.384Z" fill="#0C2C40"/>
<path d="M438.82 277.531L415.859 285.512L414.344 299.75L444.79 290.144L438.82 277.531Z" fill="#FCC9A7"/>
<path d="M419.281 294.923C419.281 303.242 412.897 310.01 404.999 310.01C397.123 310.01 390.717 303.267 390.717 294.923C390.717 286.603 397.1 279.836 404.999 279.836C412.874 279.836 419.281 286.579 419.281 294.923Z" fill="#FCC9A7"/>
<path d="M416.158 303.097H376.252C376.252 303.097 351.937 301.666 350.49 322.744C349.044 343.822 388.881 408.003 394.69 440.19L428.075 437.279L401.302 345.811L461.092 346.175C465.524 346.199 469.932 345.52 474.111 343.992C485.752 339.723 503.524 333.611 493.834 299.75L416.158 303.097Z" fill="#0C2C40"/>
<path d="M295.775 228.559H364.772C367.045 228.559 368.997 230.233 369.479 232.586L382.474 296.96C383.117 300.113 380.821 303.097 377.768 303.097H307.622C305.326 303.097 303.352 301.375 302.916 298.998L291.068 234.623C290.471 231.47 292.744 228.559 295.775 228.559Z" fill="#B2B2B2"/>
<path d="M291.803 228.559H360.777C363.05 228.559 365.001 230.233 365.484 232.586L378.479 296.96C379.122 300.113 376.849 303.097 373.772 303.097H303.65C301.354 303.097 299.38 301.375 298.943 298.998L287.096 234.623C286.499 231.47 288.772 228.559 291.803 228.559Z" fill="#D1D1D1"/>
<path d="M380.592 297.591H427.73C429.177 297.591 430.325 298.828 430.325 300.332C430.325 301.86 429.154 303.073 427.73 303.073H379.673L380.592 297.591Z" fill="#B2B2B2"/>
<path d="M334.51 264.142C334.51 268.533 331.157 272.074 327.001 272.074C322.846 272.074 319.493 268.508 319.493 264.142C319.493 259.752 322.868 256.211 327.001 256.211C331.157 256.211 334.51 259.752 334.51 264.142Z" fill="white"/>
<path d="M457.189 212.381L482.4 255.386L422.059 278.138L430.325 297.009C430.325 297.009 481.917 290.896 506.853 270.594C509.149 268.727 510.297 265.695 509.907 262.663C508.736 252.961 503.73 229.408 482.4 195.936C478.06 189.12 469.427 187.058 462.699 191.181C455.696 195.45 453.239 204.91 457.189 212.381Z" fill="#F7EBE7"/>
<path d="M438.108 272.074L482.4 255.386L460.242 217.572" stroke="#EADDD8" stroke-width="0.7599" stroke-miterlimit="10" stroke-linecap="round" stroke-linejoin="round"/>
<path d="M408.122 257.836L397.215 227.419" stroke="#EADDD8" stroke-width="0.7599" stroke-miterlimit="10" stroke-linecap="round" stroke-linejoin="round"/>
<path d="M438.82 295.723C438.82 295.723 472.71 291.236 489.793 280.903" stroke="#EADDD8" stroke-width="0.7599" stroke-miterlimit="10" stroke-linecap="round" stroke-linejoin="round"/>
</g>
<g opacity="0.3">
<path d="M109.522 433.001L114.637 464.626L129.465 466.138L124.327 430.82L109.522 433.001Z" fill="#FCC9A7"/>
<path d="M112.596 462.445C112.901 461.33 114.004 460.909 114.801 461.578C116.326 462.916 119.071 464.527 122.989 463.957C127.072 463.387 128.526 460.76 129.066 458.926C129.348 457.959 130.216 457.439 130.99 457.81L158.745 470.104C160.294 470.847 161.514 472.31 162.147 474.144C162.757 475.879 161.701 477.787 160.153 477.812L114.684 478.109C112.995 478.109 111.634 476.424 111.728 474.367L112.127 464.354C112.127 464.18 112.15 464.031 112.197 463.858L112.596 462.445Z" fill="#1F252A"/>
<path d="M49.5775 287.488H43.5244V473.945H49.5775V287.488Z" fill="#2A272D"/>
<path d="M36.4624 249.146L79.8198 333.266L107.247 450.127H132.139L114.379 320.254L36.4624 249.146Z" fill="#232322"/>
<path d="M72.2416 284.737H18.045C10.2791 284.737 3.9679 278.095 3.9679 269.866C3.9679 261.663 10.2556 254.995 18.045 254.995H72.2416C80.0074 254.995 86.3186 261.663 86.3186 269.866C86.3186 278.095 80.0074 284.737 72.2416 284.737Z" fill="#FFEEE3"/>
<path d="M72.5701 284.737H20.4849V290.24H72.5701V284.737Z" fill="#2A272D"/>
<path d="M72.5701 428.688H20.4849V434.19H72.5701V428.688Z" fill="#2A272D"/>
<path d="M43.7355 96.7932C33.295 95.4548 23.3942 102.122 19.4057 112.383C16.0272 121.033 13.2117 133.574 16.2148 148.123C25.3649 192.661 19.8983 223.469 19.8983 223.469H69.4731L69.2854 162.82C69.2854 162.82 72.7108 155.757 74.5643 146.512C77.1686 133.574 76.1831 131.889 69.0273 120.438L53.8006 100.808C53.8241 100.808 50.4221 97.6359 43.7355 96.7932Z" fill="#FFD686"/>
<path d="M133.899 139.77C137.207 132.781 145.231 129.956 151.847 133.45C158.464 136.945 161.138 145.421 157.83 152.411C154.522 159.4 146.498 162.226 139.882 158.731C133.266 155.261 130.591 146.76 133.899 139.77Z" fill="#FCC9A7"/>
<path d="M136.832 135.681L111.634 160.961L121.206 172.214L140.844 154.443L136.832 135.681Z" fill="#FCC9A7"/>
<path d="M26.7493 136.028L72.3355 209.218C74.0951 212.018 77.7083 212.688 80.2656 210.655L135.283 165.001L124.139 144.802L81.5795 179.154L51.83 121.033C47.8649 112.309 37.3306 109.657 30.0574 115.506C24.0043 120.364 22.5731 129.336 26.7493 136.028Z" fill="#FFD686"/>
<path d="M46.5979 107.872C43.7121 107.847 40.6386 106.583 38.3628 105.344C36.1105 104.13 34.7028 101.626 34.7262 98.9496L35.1955 49.7763L55.5368 49.8755L55.0676 98.4291C55.0442 104.006 51.2433 107.897 46.5979 107.872Z" fill="#FCC9A7"/>
<path d="M55.2083 84.7974L46.809 72.2315C46.809 72.2315 41.6708 86.5819 55.1614 90.9937L55.2083 84.7974Z" fill="#F2C09E"/>
<path d="M73.532 49.9745C73.4616 64.6224 62.1765 76.4201 48.3106 76.3457C34.4447 76.2714 23.2769 64.3498 23.3473 49.7019C23.4176 35.0541 34.7027 23.2564 48.5687 23.3308C62.4111 23.4051 73.5789 35.3267 73.532 49.9745Z" fill="#FCC9A7"/>
<path d="M56.9915 84.9462C50.4222 84.9214 45.0964 79.2457 45.1433 72.3059L45.2137 54.1633L73.5086 49.9746L73.4382 67.7455C73.3913 77.2877 66.0477 84.9958 56.9915 84.9462Z" fill="#FCC9A7"/>
<path d="M72.7577 55.8983L78.2008 64.449C78.9751 65.837 77.9662 67.5471 76.3473 67.5471L69.9892 68.7864L72.7577 55.8983Z" fill="#FCC9A7"/>
<path d="M45.237 61.4254L55.9121 61.0288C55.9121 61.0288 56.8271 51.2387 58.9152 48.8841C61.0033 46.5296 62.0591 36.0704 62.0591 36.0704C62.0591 36.0704 57.0148 42.5888 55.5367 49.3303L77.8958 48.7354C77.8958 48.7354 81.2274 20.0841 47.3721 18.6961C13.4933 17.3082 14.4317 51.1644 21.0949 57.8811C26.3972 63.2346 34.9842 76.3707 34.9842 76.3707C34.9842 76.3707 34.5854 61.8219 45.237 61.4254Z" fill="#4C1827"/>
<path d="M52.9795 57.9554C53.1203 62.1441 50.0233 65.6388 46.0817 65.7875C42.1167 65.9362 38.8086 62.6646 38.6444 58.5007C38.5036 54.312 41.6005 50.8174 45.5421 50.6439C49.5071 50.4952 52.8153 53.7668 52.9795 57.9554Z" fill="#FCC9A7"/>
<path d="M32.2862 15.0278C33.3654 24.4213 27.0543 32.9473 18.1857 34.1122C9.29372 35.2523 1.22285 28.5852 0.120145 19.1917C-0.959096 9.79825 5.35209 1.27223 14.2441 0.132125C23.1361 -1.03277 31.207 5.63436 32.2862 15.0278Z" fill="#4C1827"/>
<path d="M35.524 102.345C35.524 102.345 37.4713 108.764 64.64 114.738L52.0176 96.5949L35.524 102.345Z" fill="#FCC9A7"/>
<path d="M46.551 464.527L10.1382 477.688H82.9167L46.551 464.527Z" fill="#2A272D"/>
<path d="M49.296 385.686L29.377 410.992L43.6887 416.742L63.6781 389.949L49.296 385.686Z" fill="#FCC9A7"/>
<path d="M30.0573 407.547C30.7611 406.679 31.9342 406.729 32.4035 407.695C33.295 409.579 35.172 412.206 38.9962 413.346C42.9613 414.536 47.3016 410.868 48.4747 409.405C49.0847 408.637 50.0936 408.513 50.6567 409.207L75.0335 427.275C76.1596 428.614 76.7227 430.473 76.6288 432.431C76.535 434.265 74.8458 435.578 73.4146 434.934L25.1772 422.046C23.6287 421.327 23.0188 419.195 23.8868 417.361L28.9076 409.083C28.978 408.935 29.0719 408.786 29.1657 408.662L30.0573 407.547Z" fill="#1F252A"/>
<path d="M18.4672 223.469C18.4672 223.469 3.54553 259.358 56.5691 278.467L93.2164 314.43L36.4859 394.683L61.848 404.374L130.732 326.946C135.823 320.675 136.034 311.059 131.224 304.516L69.4966 223.444H18.4672V223.469Z" fill="#383635"/>
<path d="M307 191.769H125.852V202.427H307V191.769Z" fill="#FFEEE3"/>
<path d="M170.406 477.738V202.427" stroke="#2A272D" stroke-width="2.2811" stroke-miterlimit="10"/>
<path d="M260.992 477.738V202.427" stroke="#2A272D" stroke-width="2.2811" stroke-miterlimit="10"/>
<path d="M239.594 185.969H164.235V191.125H239.594V185.969Z" fill="#2A272D"/>
<path d="M239.594 191.149L263.995 115.902L258.88 114.614L234.972 186.886L239.594 191.149Z" fill="#2A272D"/>
<path d="M68.8396 203.616L32.4504 145.173" stroke="#EFC375" stroke-width="0.7847" stroke-miterlimit="10" stroke-linecap="round" stroke-linejoin="round"/>
<path d="M71.0451 157.764L57.1557 134.566" stroke="#EFC375" stroke-width="0.7847" stroke-miterlimit="10" stroke-linecap="round" stroke-linejoin="round"/>
</g>
</svg>
